<svg width="110" height="58" viewBox="0 0 110 58" fill="none" xmlns="http://www.w3.org/2000/svg">
<path d="M4.038 55.18C3.406 55.18 2.836 55.07 2.328 54.85C1.824 54.63 1.408 54.316 1.08 53.908C0.756 53.496 0.55 53.008 0.462 52.444L1.962 52.216C2.09 52.728 2.352 53.124 2.748 53.404C3.148 53.684 3.608 53.824 4.128 53.824C4.436 53.824 4.726 53.776 4.998 53.68C5.27 53.584 5.49 53.444 5.658 53.26C5.83 53.076 5.916 52.85 5.916 52.582C5.916 52.462 5.896 52.352 5.856 52.252C5.816 52.148 5.756 52.056 5.676 51.976C5.6 51.896 5.5 51.824 5.376 51.76C5.256 51.692 5.116 51.634 4.956 51.586L2.724 50.926C2.532 50.87 2.324 50.796 2.1 50.704C1.88 50.608 1.67 50.478 1.47 50.314C1.274 50.146 1.112 49.934 0.984 49.678C0.86 49.418 0.798 49.098 0.798 48.718C0.798 48.162 0.938 47.696 1.218 47.32C1.502 46.94 1.882 46.656 2.358 46.468C2.838 46.28 3.37 46.188 3.954 46.192C4.546 46.196 5.074 46.298 5.538 46.498C6.002 46.694 6.39 46.98 6.702 47.356C7.014 47.732 7.234 48.186 7.362 48.718L5.808 48.988C5.744 48.684 5.62 48.426 5.436 48.214C5.256 47.998 5.034 47.834 4.77 47.722C4.51 47.61 4.232 47.55 3.936 47.542C3.648 47.538 3.38 47.582 3.132 47.674C2.888 47.762 2.69 47.89 2.538 48.058C2.39 48.226 2.316 48.422 2.316 48.646C2.316 48.858 2.38 49.032 2.508 49.168C2.636 49.3 2.794 49.406 2.982 49.486C3.174 49.562 3.368 49.626 3.564 49.678L5.112 50.11C5.324 50.166 5.562 50.242 5.826 50.338C6.09 50.434 6.344 50.568 6.588 50.74C6.832 50.912 7.032 51.138 7.188 51.418C7.348 51.698 7.428 52.054 7.428 52.486C7.428 52.934 7.334 53.328 7.146 53.668C6.962 54.004 6.712 54.284 6.396 54.508C6.08 54.732 5.718 54.9 5.31 55.012C4.906 55.124 4.482 55.18 4.038 55.18ZM9.32672 55V46.36H10.6287L13.6167 52.48L16.6047 46.36H17.9067V55H16.5567V49.462L13.9047 55H13.3287L10.6827 49.462V55H9.32672ZM19.5923 55L22.3163 46.36H24.4343L27.1583 55H25.6703L23.1983 47.248H23.5223L21.0803 55H19.5923ZM21.1103 53.128V51.778H25.6463V53.128H21.1103ZM28.8431 55V46.36H32.4131C32.4971 46.36 32.6051 46.364 32.7371 46.372C32.8691 46.376 32.9911 46.388 33.1031 46.408C33.6031 46.484 34.0151 46.65 34.3391 46.906C34.6671 47.162 34.9091 47.486 35.0651 47.878C35.2251 48.266 35.3051 48.698 35.3051 49.174C35.3051 49.878 35.1271 50.484 34.7711 50.992C34.4151 51.496 33.8691 51.808 33.1331 51.928L32.5151 51.982H30.2891V55H28.8431ZM33.8051 55L32.1011 51.484L33.5711 51.16L35.4431 55H33.8051ZM30.2891 50.632H32.3531C32.4331 50.632 32.5231 50.628 32.6231 50.62C32.7231 50.612 32.8151 50.596 32.8991 50.572C33.1391 50.512 33.3271 50.406 33.4631 50.254C33.6031 50.102 33.7011 49.93 33.7571 49.738C33.8171 49.546 33.8471 49.358 33.8471 49.174C33.8471 48.99 33.8171 48.802 33.7571 48.61C33.7011 48.414 33.6031 48.24 33.4631 48.088C33.3271 47.936 33.1391 47.83 32.8991 47.77C32.8151 47.746 32.7231 47.732 32.6231 47.728C32.5231 47.72 32.4331 47.716 32.3531 47.716H30.2891V50.632ZM39.441 55V47.716H36.645V46.36H43.683V47.716H40.887V55H39.441ZM48.4403 55.18C47.8083 55.18 47.2383 55.07 46.7303 54.85C46.2263 54.63 45.8103 54.316 45.4823 53.908C45.1583 53.496 44.9523 53.008 44.8643 52.444L46.3643 52.216C46.4923 52.728 46.7543 53.124 47.1503 53.404C47.5503 53.684 48.0103 53.824 48.5303 53.824C48.8383 53.824 49.1283 53.776 49.4003 53.68C49.6723 53.584 49.8923 53.444 50.0603 53.26C50.2323 53.076 50.3183 52.85 50.3183 52.582C50.3183 52.462 50.2983 52.352 50.2583 52.252C50.2183 52.148 50.1583 52.056 50.0783 51.976C50.0023 51.896 49.9023 51.824 49.7783 51.76C49.6583 51.692 49.5183 51.634 49.3583 51.586L47.1263 50.926C46.9343 50.87 46.7263 50.796 46.5023 50.704C46.2823 50.608 46.0723 50.478 45.8723 50.314C45.6763 50.146 45.5143 49.934 45.3863 49.678C45.2623 49.418 45.2003 49.098 45.2003 48.718C45.2003 48.162 45.3403 47.696 45.6203 47.32C45.9043 46.94 46.2843 46.656 46.7603 46.468C47.2403 46.28 47.7723 46.188 48.3563 46.192C48.9483 46.196 49.4763 46.298 49.9403 46.498C50.4043 46.694 50.7923 46.98 51.1043 47.356C51.4163 47.732 51.6363 48.186 51.7643 48.718L50.2103 48.988C50.1463 48.684 50.0223 48.426 49.8383 48.214C49.6583 47.998 49.4363 47.834 49.1723 47.722C48.9123 47.61 48.6343 47.55 48.3383 47.542C48.0503 47.538 47.7823 47.582 47.5343 47.674C47.2903 47.762 47.0923 47.89 46.9403 48.058C46.7923 48.226 46.7183 48.422 46.7183 48.646C46.7183 48.858 46.7823 49.032 46.9103 49.168C47.0383 49.3 47.1963 49.406 47.3843 49.486C47.5763 49.562 47.7703 49.626 47.9663 49.678L49.5143 50.11C49.7263 50.166 49.9643 50.242 50.2283 50.338C50.4923 50.434 50.7463 50.568 50.9903 50.74C51.2343 50.912 51.4343 51.138 51.5903 51.418C51.7503 51.698 51.8303 52.054 51.8303 52.486C51.8303 52.934 51.7363 53.328 51.5483 53.668C51.3643 54.004 51.1143 54.284 50.7983 54.508C50.4823 54.732 50.1203 54.9 49.7123 55.012C49.3083 55.124 48.8843 55.18 48.4403 55.18ZM56.7314 55V46.36H58.0334L61.0214 52.48L64.0094 46.36H65.3114V55H63.9614V49.462L61.3094 55H60.7334L58.0874 49.462V55H56.7314ZM71.251 55.18C70.387 55.18 69.647 54.992 69.031 54.616C68.415 54.236 67.941 53.708 67.609 53.032C67.281 52.356 67.117 51.572 67.117 50.68C67.117 49.788 67.281 49.004 67.609 48.328C67.941 47.652 68.415 47.126 69.031 46.75C69.647 46.37 70.387 46.18 71.251 46.18C72.115 46.18 72.855 46.37 73.471 46.75C74.091 47.126 74.565 47.652 74.893 48.328C75.225 49.004 75.391 49.788 75.391 50.68C75.391 51.572 75.225 52.356 74.893 53.032C74.565 53.708 74.091 54.236 73.471 54.616C72.855 54.992 72.115 55.18 71.251 55.18ZM71.251 53.818C71.831 53.822 72.313 53.694 72.697 53.434C73.085 53.174 73.375 52.808 73.567 52.336C73.763 51.864 73.861 51.312 73.861 50.68C73.861 50.048 73.763 49.5 73.567 49.036C73.375 48.568 73.085 48.204 72.697 47.944C72.313 47.684 71.831 47.55 71.251 47.542C70.671 47.538 70.189 47.666 69.805 47.926C69.421 48.186 69.131 48.552 68.935 49.024C68.743 49.496 68.647 50.048 68.647 50.68C68.647 51.312 68.743 51.862 68.935 52.33C69.127 52.794 69.415 53.156 69.799 53.416C70.187 53.676 70.671 53.81 71.251 53.818ZM79.0269 55V47.716H76.2309V46.36H83.2689V47.716H80.4729V55H79.0269ZM88.4823 55.18C87.6183 55.18 86.8783 54.992 86.2623 54.616C85.6463 54.236 85.1723 53.708 84.8403 53.032C84.5123 52.356 84.3483 51.572 84.3483 50.68C84.3483 49.788 84.5123 49.004 84.8403 48.328C85.1723 47.652 85.6463 47.126 86.2623 46.75C86.8783 46.37 87.6183 46.18 88.4823 46.18C89.3463 46.18 90.0863 46.37 90.7023 46.75C91.3223 47.126 91.7963 47.652 92.1243 48.328C92.4563 49.004 92.6223 49.788 92.6223 50.68C92.6223 51.572 92.4563 52.356 92.1243 53.032C91.7963 53.708 91.3223 54.236 90.7023 54.616C90.0863 54.992 89.3463 55.18 88.4823 55.18ZM88.4823 53.818C89.0623 53.822 89.5443 53.694 89.9283 53.434C90.3163 53.174 90.6063 52.808 90.7983 52.336C90.9943 51.864 91.0923 51.312 91.0923 50.68C91.0923 50.048 90.9943 49.5 90.7983 49.036C90.6063 48.568 90.3163 48.204 89.9283 47.944C89.5443 47.684 89.0623 47.55 88.4823 47.542C87.9023 47.538 87.4203 47.666 87.0363 47.926C86.6523 48.186 86.3623 48.552 86.1663 49.024C85.9743 49.496 85.8783 50.048 85.8783 50.68C85.8783 51.312 85.9743 51.862 86.1663 52.33C86.3583 52.794 86.6463 53.156 87.0303 53.416C87.4183 53.676 87.9023 53.81 88.4823 53.818ZM94.4166 55V46.36H97.9866C98.0706 46.36 98.1786 46.364 98.3106 46.372C98.4426 46.376 98.5646 46.388 98.6766 46.408C99.1766 46.484 99.5886 46.65 99.9126 46.906C100.241 47.162 100.483 47.486 100.639 47.878C100.799 48.266 100.879 48.698 100.879 49.174C100.879 49.878 100.701 50.484 100.345 50.992C99.9886 51.496 99.4426 51.808 98.7066 51.928L98.0886 51.982H95.8626V55H94.4166ZM99.3786 55L97.6746 51.484L99.1446 51.16L101.017 55H99.3786ZM95.8626 50.632H97.9266C98.0066 50.632 98.0966 50.628 98.1966 50.62C98.2966 50.612 98.3886 50.596 98.4726 50.572C98.7126 50.512 98.9006 50.406 99.0366 50.254C99.1766 50.102 99.2746 49.93 99.3306 49.738C99.3906 49.546 99.4206 49.358 99.4206 49.174C99.4206 48.99 99.3906 48.802 99.3306 48.61C99.2746 48.414 99.1766 48.24 99.0366 48.088C98.9006 47.936 98.7126 47.83 98.4726 47.77C98.3886 47.746 98.2966 47.732 98.1966 47.728C98.0966 47.72 98.0066 47.716 97.9266 47.716H95.8626V50.632ZM106.136 55.18C105.504 55.18 104.934 55.07 104.426 54.85C103.922 54.63 103.506 54.316 103.178 53.908C102.854 53.496 102.648 53.008 102.56 52.444L104.06 52.216C104.188 52.728 104.45 53.124 104.846 53.404C105.246 53.684 105.706 53.824 106.226 53.824C106.534 53.824 106.824 53.776 107.096 53.68C107.368 53.584 107.588 53.444 107.756 53.26C107.928 53.076 108.014 52.85 108.014 52.582C108.014 52.462 107.994 52.352 107.954 52.252C107.914 52.148 107.854 52.056 107.774 51.976C107.698 51.896 107.598 51.824 107.474 51.76C107.354 51.692 107.214 51.634 107.054 51.586L104.822 50.926C104.63 50.87 104.422 50.796 104.198 50.704C103.978 50.608 103.768 50.478 103.568 50.314C103.372 50.146 103.21 49.934 103.082 49.678C102.958 49.418 102.896 49.098 102.896 48.718C102.896 48.162 103.036 47.696 103.316 47.32C103.6 46.94 103.98 46.656 104.456 46.468C104.936 46.28 105.468 46.188 106.052 46.192C106.644 46.196 107.172 46.298 107.636 46.498C108.1 46.694 108.488 46.98 108.8 47.356C109.112 47.732 109.332 48.186 109.46 48.718L107.906 48.988C107.842 48.684 107.718 48.426 107.534 48.214C107.354 47.998 107.132 47.834 106.868 47.722C106.608 47.61 106.33 47.55 106.034 47.542C105.746 47.538 105.478 47.582 105.23 47.674C104.986 47.762 104.788 47.89 104.636 48.058C104.488 48.226 104.414 48.422 104.414 48.646C104.414 48.858 104.478 49.032 104.606 49.168C104.734 49.3 104.892 49.406 105.08 49.486C105.272 49.562 105.466 49.626 105.662 49.678L107.21 50.11C107.422 50.166 107.66 50.242 107.924 50.338C108.188 50.434 108.442 50.568 108.686 50.74C108.93 50.912 109.13 51.138 109.286 51.418C109.446 51.698 109.526 52.054 109.526 52.486C109.526 52.934 109.432 53.328 109.244 53.668C109.06 54.004 108.81 54.284 108.494 54.508C108.178 54.732 107.816 54.9 107.408 55.012C107.004 55.124 106.58 55.18 106.136 55.18Z" fill="#333333"/>
<path d="M2.56 34V10.96H6.416V34H2.56ZM21.2408 34V25.68C21.2408 25.136 21.2034 24.5333 21.1288 23.872C21.0541 23.2107 20.8781 22.576 20.6008 21.968C20.3341 21.3493 19.9288 20.8427 19.3848 20.448C18.8514 20.0533 18.1261 19.856 17.2088 19.856C16.7181 19.856 16.2328 19.936 15.7528 20.096C15.2728 20.256 14.8354 20.5333 14.4408 20.928C14.0568 21.312 13.7474 21.8453 13.5128 22.528C13.2781 23.2 13.1608 24.064 13.1608 25.12L10.8728 24.144C10.8728 22.672 11.1554 21.3387 11.7208 20.144C12.2968 18.9493 13.1394 18 14.2488 17.296C15.3581 16.5813 16.7234 16.224 18.3448 16.224C19.6248 16.224 20.6808 16.4373 21.5128 16.864C22.3448 17.2907 23.0061 17.8347 23.4967 18.496C23.9874 19.1573 24.3501 19.8613 24.5848 20.608C24.8194 21.3547 24.9688 22.064 25.0328 22.736C25.1074 23.3973 25.1448 23.936 25.1448 24.352V34H21.2408ZM9.25675 34V16.72H12.6968V22.08H13.1608V34H9.25675ZM34.072 34.48C31.9387 34.48 30.2053 34 28.872 33.04C27.5387 32.08 26.728 30.7307 26.44 28.992L30.376 28.384C30.5787 29.2373 31.0267 29.9093 31.72 30.4C32.4133 30.8907 33.288 31.136 34.344 31.136C35.272 31.136 35.9867 30.9547 36.488 30.592C37 30.2187 37.256 29.712 37.256 29.072C37.256 28.6773 37.16 28.3627 36.968 28.128C36.7867 27.8827 36.3813 27.648 35.752 27.424C35.1227 27.2 34.1573 26.9173 32.856 26.576C31.4053 26.192 30.2533 25.7813 29.4 25.344C28.5467 24.896 27.9333 24.368 27.56 23.76C27.1867 23.152 27 22.416 27 21.552C27 20.4747 27.2827 19.536 27.848 18.736C28.4133 17.936 29.2027 17.3227 30.216 16.896C31.2293 16.4587 32.424 16.24 33.8 16.24C35.144 16.24 36.3333 16.448 37.368 16.864C38.4133 17.28 39.256 17.872 39.896 18.64C40.536 19.408 40.9307 20.3093 41.08 21.344L37.144 22.048C37.048 21.312 36.712 20.7307 36.136 20.304C35.5707 19.8773 34.8133 19.6373 33.864 19.584C32.9573 19.5307 32.2267 19.6693 31.672 20C31.1173 20.32 30.84 20.7733 30.84 21.36C30.84 21.6907 30.952 21.9733 31.176 22.208C31.4 22.4427 31.848 22.6773 32.52 22.912C33.2027 23.1467 34.216 23.4347 35.56 23.776C36.936 24.128 38.0347 24.5333 38.856 24.992C39.688 25.44 40.2853 25.9787 40.648 26.608C41.0213 27.2373 41.208 28 41.208 28.896C41.208 30.6347 40.5733 32 39.304 32.992C38.0453 33.984 36.3013 34.48 34.072 34.48ZM43.1125 14.096V10.56H46.9685V14.096H43.1125ZM43.1125 34V16.72H46.9685V34H43.1125ZM57.1053 42.16C56.1453 42.16 55.2226 42.0107 54.3373 41.712C53.4626 41.4133 52.6732 40.9813 51.9692 40.416C51.2652 39.8613 50.6892 39.1893 50.2412 38.4L53.7933 36.64C54.1239 37.2693 54.5879 37.7333 55.1853 38.032C55.7933 38.3413 56.4386 38.496 57.1213 38.496C57.9213 38.496 58.6359 38.352 59.2653 38.064C59.8946 37.7867 60.3799 37.3707 60.7213 36.816C61.0733 36.272 61.2386 35.5893 61.2172 34.768V29.856H61.6973V16.72H65.0732V34.832C65.0732 35.2693 65.0519 35.6853 65.0093 36.08C64.9773 36.4853 64.9186 36.88 64.8333 37.264C64.5773 38.384 64.0866 39.3013 63.3613 40.016C62.6359 40.7413 61.7346 41.28 60.6573 41.632C59.5906 41.984 58.4066 42.16 57.1053 42.16ZM56.7692 34.48C55.1799 34.48 53.7933 34.08 52.6093 33.28C51.4252 32.48 50.5079 31.392 49.8572 30.016C49.2066 28.64 48.8812 27.088 48.8812 25.36C48.8812 23.6107 49.2066 22.0533 49.8572 20.688C50.5186 19.312 51.4519 18.2293 52.6572 17.44C53.8626 16.64 55.2812 16.24 56.9132 16.24C58.5559 16.24 59.9319 16.64 61.0413 17.44C62.1613 18.2293 63.0093 19.312 63.5853 20.688C64.1613 22.064 64.4493 23.6213 64.4493 25.36C64.4493 27.0773 64.1613 28.6293 63.5853 30.016C63.0093 31.392 62.1506 32.48 61.0093 33.28C59.8679 34.08 58.4546 34.48 56.7692 34.48ZM57.3612 31.024C58.3959 31.024 59.2279 30.7893 59.8573 30.32C60.4973 29.84 60.9613 29.1733 61.2493 28.32C61.5479 27.4667 61.6973 26.48 61.6973 25.36C61.6973 24.2293 61.5479 23.2427 61.2493 22.4C60.9613 21.5467 60.5079 20.8853 59.8892 20.416C59.2706 19.936 58.4706 19.696 57.4893 19.696C56.4546 19.696 55.6013 19.952 54.9293 20.464C54.2572 20.9653 53.7612 21.648 53.4412 22.512C53.1212 23.3653 52.9612 24.3147 52.9612 25.36C52.9612 26.416 53.1159 27.376 53.4253 28.24C53.7453 29.0933 54.2306 29.7707 54.8812 30.272C55.5319 30.7733 56.3586 31.024 57.3612 31.024ZM79.592 34V25.68C79.592 25.136 79.5547 24.5333 79.48 23.872C79.4053 23.2107 79.2293 22.576 78.952 21.968C78.6853 21.3493 78.28 20.8427 77.736 20.448C77.2027 20.0533 76.4773 19.856 75.56 19.856C75.0693 19.856 74.584 19.936 74.104 20.096C73.624 20.256 73.1867 20.5333 72.792 20.928C72.408 21.312 72.0987 21.8453 71.864 22.528C71.6293 23.2 71.512 24.064 71.512 25.12L69.224 24.144C69.224 22.672 69.5067 21.3387 70.072 20.144C70.648 18.9493 71.4907 18 72.6 17.296C73.7093 16.5813 75.0747 16.224 76.696 16.224C77.976 16.224 79.032 16.4373 79.864 16.864C80.696 17.2907 81.3573 17.8347 81.848 18.496C82.3387 19.1573 82.7013 19.8613 82.936 20.608C83.1707 21.3547 83.32 22.064 83.384 22.736C83.4587 23.3973 83.496 23.936 83.496 24.352V34H79.592ZM67.608 34V10.96H71.048V23.088H71.512V34H67.608ZM95.8793 34C94.7379 34.2133 93.6179 34.304 92.5193 34.272C91.4313 34.2507 90.4553 34.0533 89.5913 33.68C88.7273 33.296 88.0713 32.6933 87.6233 31.872C87.2286 31.1253 87.0206 30.3627 86.9993 29.584C86.9779 28.8053 86.9673 27.9253 86.9673 26.944V11.92H90.8073V26.72C90.8073 27.4133 90.8126 28.0213 90.8233 28.544C90.8446 29.0667 90.9566 29.4933 91.1593 29.824C91.5433 30.464 92.1566 30.8213 92.9993 30.896C93.8419 30.9707 94.8019 30.928 95.8793 30.768V34ZM83.8313 19.744V16.72H95.8793V19.744H83.8313Z" fill="#007CC3"/>
</svg>
